<svg width="100" height="100" viewBox="0 0 100 100" fill="none" xmlns="http://www.w3.org/2000/svg">
<g clip-path="url(#clip0_2_2)">
<rect width="100" height="100" rx="8.23529" fill="url(#paint0_linear_2_2)"/>
<g filter="url(#filter0_d_2_2)">
<rect x="11.7647" y="7.05882" width="76.4706" height="76.4706" rx="8.23529" fill="#3F3F3F"/>
</g>
<g filter="url(#filter1_d_2_2)">
<path d="M23.3368 30.3306C25.0654 30.3306 25.9297 29.6898 25.9297 28.4082C25.9297 27.8867 25.7956 27.4769 25.5274 27.1788C25.2741 26.8808 24.7972 26.62 24.0968 26.3965L22.2639 25.7929C20.0733 25.0777 18.978 23.6396 18.978 21.4788C18.978 20.2271 19.3654 19.1988 20.1403 18.3941C20.9301 17.5745 22.1596 17.1647 23.8286 17.1647C24.529 17.1647 25.2219 17.2467 25.9074 17.4106C26.5929 17.5596 27.3231 17.8055 28.098 18.1482L27.2709 20.4506C26.5556 20.1675 25.9447 19.9663 25.438 19.8471C24.9462 19.7129 24.4396 19.6459 23.918 19.6459C23.2325 19.6459 22.6886 19.7726 22.2862 20.0259C21.8988 20.2643 21.705 20.7039 21.705 21.3447C21.705 21.8216 21.8392 22.2165 22.1074 22.5294C22.3905 22.8275 22.8525 23.0808 23.4933 23.2894L25.3262 23.8929C26.429 24.2655 27.256 24.8094 27.8074 25.5247C28.3737 26.2251 28.6568 27.1565 28.6568 28.3188C28.6568 29.66 28.2321 30.7478 27.3827 31.5824C26.5333 32.402 25.1996 32.8118 23.3815 32.8118C22.6662 32.8118 21.9211 32.7298 21.1462 32.5659C20.3862 32.3871 19.5517 32.089 18.6427 31.6718L19.4697 29.3694C20.3043 29.7271 21.0121 29.9804 21.5933 30.1294C22.1894 30.2635 22.7705 30.3306 23.3368 30.3306ZM39.958 32.5882V26.1729H34.2803V32.5882H31.598V17.3882H34.2803V23.6024H39.958V17.3882H42.6403V32.5882H39.958ZM57.5864 23.3788V26.5753C57.5864 28.5126 57.1021 30.04 56.1335 31.1577C55.1648 32.2604 53.7491 32.8118 51.8864 32.8118C50.0088 32.8118 48.5856 32.2604 47.617 31.1577C46.6633 30.04 46.1864 28.5126 46.1864 26.5753V23.3788C46.1864 21.4416 46.6633 19.9216 47.617 18.8188C48.5856 17.7161 50.0088 17.1647 51.8864 17.1647C53.7491 17.1647 55.1648 17.7161 56.1335 18.8188C57.1021 19.9216 57.5864 21.4416 57.5864 23.3788ZM54.837 23.3788C54.837 22.1569 54.5986 21.2404 54.1217 20.6294C53.6448 20.0035 52.8997 19.6906 51.8864 19.6906C50.8731 19.6906 50.128 20.0035 49.6511 20.6294C49.1742 21.2404 48.9358 22.1569 48.9358 23.3788V26.5753C48.9358 27.7973 49.1742 28.7212 49.6511 29.3471C50.128 29.9729 50.8731 30.2859 51.8864 30.2859C52.8997 30.2859 53.6448 29.9729 54.1217 29.3471C54.5986 28.7212 54.837 27.7973 54.837 26.5753V23.3788ZM59.3221 19.9588V17.3882H70.4985V19.9588H66.2515V32.5882H63.5691V19.9588H59.3221ZM76.2068 30.3306C77.9354 30.3306 78.7997 29.6898 78.7997 28.4082C78.7997 27.8867 78.6656 27.4769 78.3973 27.1788C78.144 26.8808 77.6671 26.62 76.9668 26.3965L75.1338 25.7929C72.9432 25.0777 71.8479 23.6396 71.8479 21.4788C71.8479 20.2271 72.2354 19.1988 73.0103 18.3941C73.8001 17.5745 75.0295 17.1647 76.6985 17.1647C77.3989 17.1647 78.0919 17.2467 78.7773 17.4106C79.4628 17.5596 80.193 17.8055 80.9679 18.1482L80.1409 20.4506C79.4256 20.1675 78.8146 19.9663 78.3079 19.8471C77.8162 19.7129 77.3095 19.6459 76.7879 19.6459C76.1024 19.6459 75.5585 19.7726 75.1562 20.0259C74.7687 20.2643 74.575 20.7039 74.575 21.3447C74.575 21.8216 74.7091 22.2165 74.9773 22.5294C75.2605 22.8275 75.7224 23.0808 76.3632 23.2894L78.1962 23.8929C79.2989 24.2655 80.126 24.8094 80.6773 25.5247C81.2436 26.2251 81.5268 27.1565 81.5268 28.3188C81.5268 29.66 81.102 30.7478 80.2526 31.5824C79.4032 32.402 78.0695 32.8118 76.2515 32.8118C75.5362 32.8118 74.7911 32.7298 74.0162 32.5659C73.2562 32.3871 72.4217 32.089 71.5126 31.6718L72.3397 29.3694C73.1742 29.7271 73.882 29.9804 74.4632 30.1294C75.0593 30.2635 75.6405 30.3306 76.2068 30.3306Z" fill="white"/>
</g>
</g>
<defs>
<filter id="filter0_d_2_2" x="2.35294" y="2.35294" width="95.2941" height="95.2941" filterUnits="userSpaceOnUse" color-interpolation-filters="sRGB">
<feFlood flood-opacity="0" result="BackgroundImageFix"/>
<feColorMatrix in="SourceAlpha" type="matrix" values="0 0 0 0 0 0 0 0 0 0 0 0 0 0 0 0 0 0 127 0" result="hardAlpha"/>
<feOffset dy="4.70588"/>
<feGaussianBlur stdDeviation="4.70588"/>
<feComposite in2="hardAlpha" operator="out"/>
<feColorMatrix type="matrix" values="0 0 0 0 0 0 0 0 0 0 0 0 0 0 0 0 0 0 0.1 0"/>
<feBlend mode="normal" in2="BackgroundImageFix" result="effect1_dropShadow_2_2"/>
<feBlend mode="normal" in="SourceGraphic" in2="effect1_dropShadow_2_2" result="shape"/>
</filter>
<filter id="filter1_d_2_2" x="12.7603" y="11.2824" width="74.6488" height="27.4118" filterUnits="userSpaceOnUse" color-interpolation-filters="sRGB">
<feFlood flood-opacity="0" result="BackgroundImageFix"/>
<feColorMatrix in="SourceAlpha" type="matrix" values="0 0 0 0 0 0 0 0 0 0 0 0 0 0 0 0 0 0 127 0" result="hardAlpha"/>
<feOffset/>
<feGaussianBlur stdDeviation="2.94118"/>
<feComposite in2="hardAlpha" operator="out"/>
<feColorMatrix type="matrix" values="0 0 0 0 1 0 0 0 0 1 0 0 0 0 1 0 0 0 0.5 0"/>
<feBlend mode="normal" in2="BackgroundImageFix" result="effect1_dropShadow_2_2"/>
<feBlend mode="normal" in="SourceGraphic" in2="effect1_dropShadow_2_2" result="shape"/>
</filter>
<linearGradient id="paint0_linear_2_2" x1="0" y1="0" x2="100" y2="100" gradientUnits="userSpaceOnUse">
<stop stop-color="#2C2C2C"/>
<stop offset="1" stop-color="#222222"/>
</linearGradient>
<clipPath id="clip0_2_2">
<rect width="100" height="100" fill="white"/>
</clipPath>
</defs>
</svg>
