<svg width="339" height="100" viewBox="0 0 339 100" fill="none" xmlns="http://www.w3.org/2000/svg">
<g clip-path="url(#clip0_2_30)">
<rect x="7.5" y="7.5" width="85" height="85" rx="7" fill="url(#paint0_linear_2_30)"/>
<g filter="url(#filter0_d_2_30)">
<rect x="17.5" y="13.5" width="65" height="65" rx="7" fill="#3F3F3F"/>
</g>
<g filter="url(#filter1_d_2_30)">
<path d="M27.2113 33.581C28.6806 33.581 29.4153 33.0363 29.4153 31.947C29.4153 31.5037 29.3013 31.1553 29.0733 30.902C28.8579 30.6487 28.4526 30.427 27.8573 30.237L26.2993 29.724C24.4373 29.116 23.5063 27.8937 23.5063 26.057C23.5063 24.993 23.8356 24.119 24.4943 23.435C25.1656 22.7383 26.2106 22.39 27.6293 22.39C28.2246 22.39 28.8136 22.4597 29.3963 22.599C29.9789 22.7257 30.5996 22.9347 31.2583 23.226L30.5553 25.183C29.9473 24.9423 29.4279 24.7713 28.9973 24.67C28.5793 24.556 28.1486 24.499 27.7053 24.499C27.1226 24.499 26.6603 24.6067 26.3183 24.822C25.9889 25.0247 25.8243 25.3983 25.8243 25.943C25.8243 26.3483 25.9383 26.684 26.1663 26.95C26.4069 27.2033 26.7996 27.4187 27.3443 27.596L28.9023 28.109C29.8396 28.4257 30.5426 28.888 31.0113 29.496C31.4926 30.0913 31.7333 30.883 31.7333 31.871C31.7333 33.011 31.3723 33.9357 30.6503 34.645C29.9283 35.3417 28.7946 35.69 27.2493 35.69C26.6413 35.69 26.0079 35.6203 25.3493 35.481C24.7033 35.329 23.9939 35.0757 23.2213 34.721L23.9243 32.764C24.6336 33.068 25.2353 33.2833 25.7293 33.41C26.2359 33.524 26.7299 33.581 27.2113 33.581ZM41.3393 35.5V30.047H36.5133V35.5H34.2333V22.58H36.5133V27.862H41.3393V22.58H43.6193V35.5H41.3393ZM56.3234 27.672V30.389C56.3234 32.0357 55.9118 33.334 55.0884 34.284C54.2651 35.2213 53.0618 35.69 51.4784 35.69C49.8824 35.69 48.6728 35.2213 47.8494 34.284C47.0388 33.334 46.6334 32.0357 46.6334 30.389V27.672C46.6334 26.0253 47.0388 24.7333 47.8494 23.796C48.6728 22.8587 49.8824 22.39 51.4784 22.39C53.0618 22.39 54.2651 22.8587 55.0884 23.796C55.9118 24.7333 56.3234 26.0253 56.3234 27.672ZM53.9864 27.672C53.9864 26.6333 53.7838 25.8543 53.3784 25.335C52.9731 24.803 52.3398 24.537 51.4784 24.537C50.6171 24.537 49.9838 24.803 49.5784 25.335C49.1731 25.8543 48.9704 26.6333 48.9704 27.672V30.389C48.9704 31.4277 49.1731 32.213 49.5784 32.745C49.9838 33.277 50.6171 33.543 51.4784 33.543C52.3398 33.543 52.9731 33.277 53.3784 32.745C53.7838 32.213 53.9864 31.4277 53.9864 30.389V27.672ZM57.7988 24.765V22.58H67.2988V24.765H63.6888V35.5H61.4088V24.765H57.7988ZM72.1507 33.581C73.6201 33.581 74.3547 33.0363 74.3547 31.947C74.3547 31.5037 74.2407 31.1553 74.0127 30.902C73.7974 30.6487 73.3921 30.427 72.7967 30.237L71.2387 29.724C69.3767 29.116 68.4457 27.8937 68.4457 26.057C68.4457 24.993 68.7751 24.119 69.4337 23.435C70.1051 22.7383 71.1501 22.39 72.5687 22.39C73.1641 22.39 73.7531 22.4597 74.3357 22.599C74.9184 22.7257 75.5391 22.9347 76.1977 23.226L75.4947 25.183C74.8867 24.9423 74.3674 24.7713 73.9367 24.67C73.5187 24.556 73.0881 24.499 72.6447 24.499C72.0621 24.499 71.5997 24.6067 71.2577 24.822C70.9284 25.0247 70.7637 25.3983 70.7637 25.943C70.7637 26.3483 70.8777 26.684 71.1057 26.95C71.3464 27.2033 71.7391 27.4187 72.2837 27.596L73.8417 28.109C74.7791 28.4257 75.4821 28.888 75.9507 29.496C76.4321 30.0913 76.6727 30.883 76.6727 31.871C76.6727 33.011 76.3117 33.9357 75.5897 34.645C74.8677 35.3417 73.7341 35.69 72.1887 35.69C71.5807 35.69 70.9474 35.6203 70.2887 35.481C69.6427 35.329 68.9334 35.0757 68.1607 34.721L68.8637 32.764C69.5731 33.068 70.1747 33.2833 70.6687 33.41C71.1754 33.524 71.6694 33.581 72.1507 33.581Z" fill="white"/>
</g>
</g>
<g filter="url(#filter2_d_2_30)">
<path d="M112.857 39L107.417 29.496C107.054 29.9013 106.681 30.3067 106.297 30.712C105.934 31.1173 105.55 31.5333 105.145 31.96V39H101.305V17.24H105.145V27.576C106.766 25.72 108.153 23.96 109.305 22.296C110.457 20.6107 111.449 18.9253 112.281 17.24H116.473C115.556 19.0747 114.574 20.8133 113.529 22.456C112.505 24.0773 111.417 25.5813 110.265 26.968L117.497 39H112.857ZM132.051 38.072C130.942 38.52 129.896 38.84 128.915 39.032C127.934 39.224 127.006 39.32 126.131 39.32C123.72 39.32 121.896 38.6373 120.659 37.272C119.422 35.9067 118.803 34.0933 118.803 31.832V29.912C118.803 28.3973 119.08 27.0853 119.635 25.976C120.19 24.8667 120.979 24.0027 122.003 23.384C123.027 22.7653 124.232 22.456 125.619 22.456C126.75 22.456 127.806 22.6907 128.787 23.16C129.79 23.608 130.6 24.3227 131.219 25.304C131.859 26.264 132.179 27.5013 132.179 29.016C132.179 29.464 132.147 29.944 132.083 30.456C132.019 30.9467 131.912 31.4693 131.763 32.024H122.355C122.398 33.3467 122.728 34.3387 123.347 35C123.966 35.6613 124.958 35.992 126.323 35.992C127.048 35.992 127.795 35.9067 128.563 35.736C129.352 35.5653 130.163 35.3093 130.995 34.968L132.051 38.072ZM125.619 25.56C124.638 25.56 123.87 25.88 123.315 26.52C122.782 27.1387 122.472 28.0347 122.387 29.208H128.531C128.552 29.1013 128.563 29.0053 128.563 28.92C128.563 28.8133 128.563 28.7173 128.563 28.632C128.563 27.608 128.275 26.84 127.699 26.328C127.123 25.816 126.43 25.56 125.619 25.56ZM142.822 40.6C142.118 42.5627 141.222 43.9707 140.134 44.824C139.046 45.6987 137.553 46.136 135.654 46.136V42.456C136.785 42.4133 137.67 42.1573 138.31 41.688C138.972 41.24 139.462 40.6107 139.782 39.8L140.07 39.064L134.278 22.776H137.926L140.71 30.872L141.798 34.296L142.854 30.872L145.51 22.776H149.158L142.822 40.6ZM156.775 36.12C157.564 36.12 158.215 35.992 158.727 35.736C159.239 35.4587 159.495 35.0533 159.495 34.52C159.495 34.0507 159.324 33.688 158.983 33.432C158.663 33.1547 158.076 32.9093 157.223 32.696L155.399 32.216C153.991 31.8533 152.946 31.2453 152.263 30.392C151.602 29.5387 151.271 28.5253 151.271 27.352C151.271 25.9653 151.751 24.8027 152.711 23.864C153.671 22.9253 155.154 22.456 157.159 22.456C157.97 22.456 158.823 22.552 159.719 22.744C160.615 22.936 161.554 23.2453 162.535 23.672L161.479 26.808C160.583 26.3813 159.772 26.0827 159.047 25.912C158.322 25.7413 157.682 25.656 157.127 25.656C155.612 25.656 154.855 26.168 154.855 27.192C154.855 27.5973 154.983 27.9173 155.239 28.152C155.516 28.3867 156.018 28.6 156.743 28.792L158.567 29.272C160.124 29.6773 161.255 30.296 161.959 31.128C162.684 31.96 163.047 33.0053 163.047 34.264C163.047 35.7573 162.535 36.9733 161.511 37.912C160.508 38.8507 158.919 39.32 156.743 39.32C154.887 39.32 152.935 38.8933 150.887 38.04L151.879 35C152.882 35.4053 153.788 35.6933 154.599 35.864C155.41 36.0347 156.135 36.12 156.775 36.12ZM174.761 25.88C174.228 25.88 173.62 26.008 172.937 26.264C172.254 26.52 171.444 27.0213 170.505 27.768V39H166.825V15.32H170.505V24.792C171.486 23.96 172.404 23.3627 173.257 23C174.11 22.6373 174.985 22.456 175.881 22.456C177.438 22.456 178.622 22.9573 179.433 23.96C180.244 24.9413 180.649 26.328 180.649 28.12V39H176.969V28.568C176.969 26.776 176.233 25.88 174.761 25.88ZM198.792 29.912V31.832C198.792 34.0933 198.174 35.9067 196.936 37.272C195.699 38.6373 193.95 39.32 191.688 39.32C189.427 39.32 187.678 38.6373 186.44 37.272C185.203 35.9067 184.584 34.0933 184.584 31.832V29.912C184.584 27.6507 185.192 25.848 186.408 24.504C187.646 23.1387 189.406 22.456 191.688 22.456C193.971 22.456 195.72 23.1387 196.936 24.504C198.174 25.848 198.792 27.6507 198.792 29.912ZM195.016 29.912C195.016 28.6107 194.728 27.5973 194.152 26.872C193.576 26.1253 192.755 25.752 191.688 25.752C190.622 25.752 189.8 26.1253 189.224 26.872C188.648 27.5973 188.36 28.6107 188.36 29.912V31.832C188.36 33.1333 188.648 34.1573 189.224 34.904C189.8 35.6507 190.622 36.024 191.688 36.024C192.755 36.024 193.576 35.6507 194.152 34.904C194.728 34.1573 195.016 33.1333 195.016 31.832V29.912ZM212.679 38.456C212.124 38.712 211.484 38.9147 210.759 39.064C210.033 39.2347 209.297 39.32 208.551 39.32C207.313 39.32 206.321 39.064 205.575 38.552C204.828 38.04 204.284 37.3253 203.943 36.408C203.623 35.4907 203.463 34.4453 203.463 33.272V25.976H200.839V22.776H203.463V18.552H207.143V22.776H212.199V25.976H207.143V33.272C207.143 34.2533 207.324 34.936 207.687 35.32C208.071 35.6827 208.615 35.864 209.319 35.864C209.66 35.864 210.023 35.832 210.407 35.768C210.812 35.6827 211.26 35.544 211.751 35.352L212.679 38.456ZM220.181 36.12C220.971 36.12 221.621 35.992 222.133 35.736C222.645 35.4587 222.901 35.0533 222.901 34.52C222.901 34.0507 222.731 33.688 222.389 33.432C222.069 33.1547 221.483 32.9093 220.629 32.696L218.805 32.216C217.397 31.8533 216.352 31.2453 215.669 30.392C215.008 29.5387 214.677 28.5253 214.677 27.352C214.677 25.9653 215.157 24.8027 216.117 23.864C217.077 22.9253 218.56 22.456 220.565 22.456C221.376 22.456 222.229 22.552 223.125 22.744C224.021 22.936 224.96 23.2453 225.941 23.672L224.885 26.808C223.989 26.3813 223.179 26.0827 222.453 25.912C221.728 25.7413 221.088 25.656 220.533 25.656C219.019 25.656 218.261 26.168 218.261 27.192C218.261 27.5973 218.389 27.9173 218.645 28.152C218.923 28.3867 219.424 28.6 220.149 28.792L221.973 29.272C223.531 29.6773 224.661 30.296 225.365 31.128C226.091 31.96 226.453 33.0053 226.453 34.264C226.453 35.7573 225.941 36.9733 224.917 37.912C223.915 38.8507 222.325 39.32 220.149 39.32C218.293 39.32 216.341 38.8933 214.293 38.04L215.285 35C216.288 35.4053 217.195 35.6933 218.005 35.864C218.816 36.0347 219.541 36.12 220.181 36.12Z" fill="white"/>
</g>
<g filter="url(#filter3_d_2_30)">
<path d="M100.208 56.064V55.12H107.776V56.064H104.512V66H103.472V56.064H100.208ZM113.275 66V64.88C112.678 65.3813 112.15 65.7227 111.691 65.904C111.243 66.0747 110.817 66.16 110.411 66.16C109.729 66.16 109.206 65.9413 108.843 65.504C108.481 65.056 108.299 64.4267 108.299 63.616V58.208H109.259V63.44C109.259 64.0587 109.366 64.5173 109.579 64.816C109.793 65.104 110.123 65.248 110.571 65.248C110.891 65.248 111.254 65.168 111.659 65.008C112.075 64.8373 112.598 64.496 113.227 63.984V58.208H114.187V66H113.275ZM121.095 59.008C120.647 59.008 120.199 59.0933 119.751 59.264C119.303 59.4347 118.78 59.8133 118.183 60.4V66H117.223V58.208H118.135V59.504C118.679 58.9387 119.186 58.5547 119.655 58.352C120.124 58.1493 120.604 58.048 121.095 58.048V59.008ZM126.575 58.96C126.245 58.96 125.866 59.04 125.439 59.2C125.013 59.36 124.479 59.7013 123.839 60.224V66H122.879V58.208H123.791V59.328C124.41 58.816 124.954 58.4747 125.423 58.304C125.893 58.1333 126.33 58.048 126.735 58.048C127.45 58.048 127.994 58.2667 128.367 58.704C128.741 59.1413 128.927 59.7707 128.927 60.592V66H127.967V60.768C127.967 60.1387 127.85 59.68 127.615 59.392C127.391 59.104 127.045 58.96 126.575 58.96ZM137.903 66.8C137.572 67.7493 137.172 68.448 136.703 68.896C136.233 69.344 135.583 69.568 134.751 69.568V68.656C135.103 68.656 135.401 68.6133 135.647 68.528C135.903 68.4427 136.143 68.2453 136.367 67.936C136.601 67.6373 136.847 67.152 137.103 66.48L137.279 66.032L134.463 58.208H135.471L136.767 61.936L137.743 64.864L138.703 61.936L139.983 58.208H140.943L137.903 66.8ZM148.74 61.616V62.576C148.74 63.7067 148.457 64.5867 147.892 65.216C147.326 65.8453 146.532 66.16 145.508 66.16C144.473 66.16 143.673 65.8453 143.108 65.216C142.553 64.5867 142.276 63.7067 142.276 62.576V61.616C142.276 60.528 142.553 59.664 143.108 59.024C143.673 58.3733 144.473 58.048 145.508 58.048C146.542 58.048 147.337 58.3733 147.892 59.024C148.457 59.664 148.74 60.528 148.74 61.616ZM147.732 61.616C147.732 60.7627 147.54 60.1013 147.156 59.632C146.772 59.1627 146.222 58.928 145.508 58.928C144.793 58.928 144.244 59.1627 143.86 59.632C143.476 60.1013 143.284 60.7627 143.284 61.616V62.576C143.284 63.4613 143.476 64.1333 143.86 64.592C144.244 65.0507 144.793 65.28 145.508 65.28C146.222 65.28 146.772 65.0507 147.156 64.592C147.54 64.1333 147.732 63.4613 147.732 62.576V61.616ZM156.244 66V64.88C155.647 65.3813 155.119 65.7227 154.66 65.904C154.212 66.0747 153.785 66.16 153.38 66.16C152.697 66.16 152.175 65.9413 151.812 65.504C151.449 65.056 151.268 64.4267 151.268 63.616V58.208H152.228V63.44C152.228 64.0587 152.335 64.5173 152.548 64.816C152.761 65.104 153.092 65.248 153.54 65.248C153.86 65.248 154.223 65.168 154.628 65.008C155.044 64.8373 155.567 64.496 156.196 63.984V58.208H157.156V66H156.244ZM164.064 59.008C163.616 59.008 163.168 59.0933 162.72 59.264C162.272 59.4347 161.749 59.8133 161.152 60.4V66H160.192V58.208H161.104V59.504C161.648 58.9387 162.155 58.5547 162.624 58.352C163.093 58.1493 163.573 58.048 164.064 58.048V59.008ZM177.072 59.328V61.776C177.072 62.6613 176.922 63.4347 176.624 64.096C176.325 64.7467 175.888 65.2533 175.312 65.616C174.746 65.9787 174.053 66.16 173.232 66.16C172.005 66.16 171.056 65.76 170.384 64.96C169.722 64.16 169.392 63.0987 169.392 61.776V59.328C169.392 58.4427 169.541 57.6747 169.84 57.024C170.138 56.3733 170.576 55.8667 171.152 55.504C171.728 55.1413 172.421 54.96 173.232 54.96C174.042 54.96 174.73 55.1413 175.296 55.504C175.872 55.8667 176.309 56.3733 176.608 57.024C176.917 57.6747 177.072 58.4427 177.072 59.328ZM175.984 59.328C175.984 58.2507 175.744 57.4133 175.264 56.816C174.794 56.208 174.117 55.904 173.232 55.904C172.357 55.904 171.68 56.208 171.2 56.816C170.72 57.4133 170.48 58.2507 170.48 59.328V61.776C170.48 62.8427 170.72 63.6853 171.2 64.304C171.68 64.912 172.357 65.216 173.232 65.216C174.117 65.216 174.794 64.912 175.264 64.304C175.744 63.6853 175.984 62.8427 175.984 61.776V59.328ZM186.085 62.592C186.085 63.68 185.813 64.5493 185.269 65.2C184.725 65.84 183.93 66.16 182.885 66.16C181.893 66.16 180.906 65.8987 179.925 65.376V54.16H180.885V59.28C181.354 58.8427 181.802 58.528 182.229 58.336C182.666 58.144 183.109 58.048 183.557 58.048C184.378 58.048 185.002 58.3627 185.429 58.992C185.866 59.6107 186.085 60.4907 186.085 61.632V62.592ZM183.365 58.96C183.024 58.96 182.666 59.0453 182.293 59.216C181.93 59.376 181.461 59.7227 180.885 60.256V64.832C181.546 65.1307 182.197 65.28 182.837 65.28C183.637 65.28 184.208 65.04 184.549 64.56C184.901 64.08 185.077 63.424 185.077 62.592V61.632C185.077 60.7147 184.938 60.0427 184.661 59.616C184.384 59.1787 183.952 58.96 183.365 58.96ZM190.435 65.28C191.085 65.28 191.539 65.1733 191.795 64.96C192.061 64.736 192.195 64.416 192.195 64C192.195 63.648 192.088 63.36 191.875 63.136C191.672 62.912 191.288 62.7307 190.723 62.592L189.859 62.384C189.251 62.2347 188.787 61.9733 188.467 61.6C188.157 61.216 188.003 60.752 188.003 60.208C188.003 59.8347 188.083 59.488 188.243 59.168C188.413 58.8373 188.68 58.5707 189.043 58.368C189.416 58.1547 189.907 58.048 190.515 58.048C190.909 58.048 191.309 58.096 191.715 58.192C192.12 58.2773 192.52 58.416 192.915 58.608L192.595 59.424C191.848 59.0933 191.155 58.928 190.515 58.928C190.013 58.928 189.624 59.0293 189.347 59.232C189.08 59.4347 188.947 59.7387 188.947 60.144C188.947 60.4533 189.043 60.7307 189.235 60.976C189.437 61.2213 189.805 61.408 190.339 61.536L191.219 61.744C192.499 62.0427 193.139 62.7787 193.139 63.952C193.139 64.3573 193.059 64.7307 192.899 65.072C192.739 65.4027 192.467 65.6693 192.083 65.872C191.699 66.064 191.176 66.16 190.515 66.16C190.067 66.16 189.624 66.112 189.187 66.016C188.749 65.92 188.301 65.7707 187.843 65.568L188.099 64.752C188.525 64.9227 188.915 65.056 189.267 65.152C189.629 65.2373 190.019 65.28 190.435 65.28ZM196.435 55.984H195.283V54.816H196.435V55.984ZM196.339 66H195.379V58.208H196.339V66ZM204.243 66V64.896C203.763 65.3333 203.305 65.6533 202.867 65.856C202.43 66.0587 201.982 66.16 201.523 66.16C200.713 66.16 200.089 65.8453 199.651 65.216C199.214 64.5867 198.995 63.7067 198.995 62.576V61.616C198.995 60.528 199.267 59.664 199.811 59.024C200.355 58.3733 201.15 58.048 202.195 58.048C202.537 58.048 202.873 58.0853 203.203 58.16C203.534 58.224 203.865 58.32 204.195 58.448V54.16H205.155V66H204.243ZM200.003 62.576C200.003 63.4933 200.142 64.1707 200.419 64.608C200.697 65.0347 201.129 65.248 201.715 65.248C202.057 65.248 202.409 65.1627 202.771 64.992C203.145 64.8213 203.619 64.4747 204.195 63.952V59.376C203.534 59.0773 202.883 58.928 202.243 58.928C201.443 58.928 200.867 59.168 200.515 59.648C200.174 60.128 200.003 60.784 200.003 61.616V62.576ZM209.248 55.984H208.096V54.816H209.248V55.984ZM209.152 66H208.192V58.208H209.152V66ZM217.744 66.08C217.307 66.08 216.944 65.9733 216.656 65.76C216.368 65.536 216.197 65.2427 216.144 64.88C215.568 65.392 215.061 65.7333 214.624 65.904C214.187 66.0747 213.776 66.16 213.392 66.16C212.709 66.16 212.203 65.9413 211.872 65.504C211.552 65.056 211.392 64.5227 211.392 63.904C211.392 63.488 211.467 63.1147 211.616 62.784C211.776 62.4533 212.037 62.192 212.4 62C212.763 61.7973 213.259 61.696 213.888 61.696C214.176 61.696 214.512 61.7173 214.896 61.76C215.28 61.792 215.653 61.84 216.016 61.904V60.752C216.016 60.0587 215.883 59.584 215.616 59.328C215.349 59.0613 214.933 58.928 214.368 58.928C213.984 58.928 213.605 58.9813 213.232 59.088C212.859 59.184 212.469 59.328 212.064 59.52L211.728 58.736C212.165 58.512 212.597 58.3413 213.024 58.224C213.461 58.1067 213.909 58.048 214.368 58.048C215.083 58.048 215.621 58.1653 215.984 58.4C216.357 58.624 216.613 58.928 216.752 59.312C216.891 59.696 216.96 60.1227 216.96 60.592V64.208C216.96 64.5067 217.008 64.7467 217.104 64.928C217.211 65.1093 217.413 65.2 217.712 65.2H217.904V66.08H217.744ZM212.384 63.904C212.384 64.3307 212.48 64.672 212.672 64.928C212.875 65.184 213.163 65.312 213.536 65.312C213.835 65.312 214.181 65.216 214.576 65.024C214.981 64.832 215.461 64.4853 216.016 63.984V62.752C215.643 62.688 215.259 62.64 214.864 62.608C214.48 62.5653 214.16 62.544 213.904 62.544C213.371 62.544 212.981 62.656 212.736 62.88C212.501 63.0933 212.384 63.4347 212.384 63.904ZM223.638 58.96C223.307 58.96 222.929 59.04 222.502 59.2C222.075 59.36 221.542 59.7013 220.902 60.224V66H219.942V58.208H220.854V59.328C221.473 58.816 222.017 58.4747 222.486 58.304C222.955 58.1333 223.393 58.048 223.798 58.048C224.513 58.048 225.057 58.2667 225.43 58.704C225.803 59.1413 225.99 59.7707 225.99 60.592V66H225.03V60.768C225.03 60.1387 224.913 59.68 224.678 59.392C224.454 59.104 224.107 58.96 223.638 58.96ZM233.701 55.984H232.549V54.816H233.701V55.984ZM233.605 66H232.645V58.208H233.605V66ZM240.341 58.96C240.01 58.96 239.632 59.04 239.205 59.2C238.778 59.36 238.245 59.7013 237.605 60.224V66H236.645V58.208H237.557V59.328C238.176 58.816 238.72 58.4747 239.189 58.304C239.658 58.1333 240.096 58.048 240.501 58.048C241.216 58.048 241.76 58.2667 242.133 58.704C242.506 59.1413 242.693 59.7707 242.693 60.592V66H241.733V60.768C241.733 60.1387 241.616 59.68 241.381 59.392C241.157 59.104 240.81 58.96 240.341 58.96ZM249.645 65.696C249.058 66.0053 248.466 66.16 247.869 66.16C247.335 66.16 246.919 66.0533 246.621 65.84C246.322 65.616 246.114 65.3227 245.997 64.96C245.879 64.5973 245.821 64.2133 245.821 63.808V59.056H244.397V58.208H245.821V55.936H246.781V58.208H249.421V59.056H246.781V63.728C246.781 64.3253 246.871 64.7413 247.053 64.976C247.245 65.2 247.554 65.312 247.981 65.312C248.386 65.312 248.829 65.184 249.309 64.928L249.645 65.696ZM257.599 61.616V62.576C257.599 63.7067 257.316 64.5867 256.751 65.216C256.186 65.8453 255.391 66.16 254.367 66.16C253.332 66.16 252.532 65.8453 251.967 65.216C251.412 64.5867 251.135 63.7067 251.135 62.576V61.616C251.135 60.528 251.412 59.664 251.967 59.024C252.532 58.3733 253.332 58.048 254.367 58.048C255.402 58.048 256.196 58.3733 256.751 59.024C257.316 59.664 257.599 60.528 257.599 61.616ZM256.591 61.616C256.591 60.7627 256.399 60.1013 256.015 59.632C255.631 59.1627 255.082 58.928 254.367 58.928C253.652 58.928 253.103 59.1627 252.719 59.632C252.335 60.1013 252.143 60.7627 252.143 61.616V62.576C252.143 63.4613 252.335 64.1333 252.719 64.592C253.103 65.0507 253.652 65.28 254.367 65.28C255.082 65.28 255.631 65.0507 256.015 64.592C256.399 64.1333 256.591 63.4613 256.591 62.576V61.616ZM264.503 61.616V62.576C264.503 63.4507 264.668 64.1227 264.999 64.592C265.33 65.0507 265.858 65.28 266.583 65.28C266.924 65.28 267.271 65.2373 267.623 65.152C267.975 65.056 268.332 64.9227 268.695 64.752L269.015 65.536C268.204 65.952 267.367 66.16 266.503 66.16C265.511 66.16 264.759 65.8453 264.247 65.216C263.746 64.5867 263.495 63.7067 263.495 62.576V61.616C263.495 60.496 263.746 59.6213 264.247 58.992C264.759 58.3627 265.511 58.048 266.503 58.048C266.876 58.048 267.271 58.096 267.687 58.192C268.103 58.288 268.498 58.432 268.871 58.624L268.551 59.424C268.231 59.2747 267.906 59.1573 267.575 59.072C267.244 58.976 266.914 58.928 266.583 58.928C265.858 58.928 265.33 59.1573 264.999 59.616C264.668 60.0747 264.503 60.7413 264.503 61.616ZM277.068 61.616V62.576C277.068 63.7067 276.785 64.5867 276.22 65.216C275.654 65.8453 274.86 66.16 273.836 66.16C272.801 66.16 272.001 65.8453 271.436 65.216C270.881 64.5867 270.604 63.7067 270.604 62.576V61.616C270.604 60.528 270.881 59.664 271.436 59.024C272.001 58.3733 272.801 58.048 273.836 58.048C274.87 58.048 275.665 58.3733 276.22 59.024C276.785 59.664 277.068 60.528 277.068 61.616ZM276.06 61.616C276.06 60.7627 275.868 60.1013 275.484 59.632C275.1 59.1627 274.55 58.928 273.836 58.928C273.121 58.928 272.572 59.1627 272.188 59.632C271.804 60.1013 271.612 60.7627 271.612 61.616V62.576C271.612 63.4613 271.804 64.1333 272.188 64.592C272.572 65.0507 273.121 65.28 273.836 65.28C274.55 65.28 275.1 65.0507 275.484 64.592C275.868 64.1333 276.06 63.4613 276.06 62.576V61.616ZM283.292 58.96C282.972 58.96 282.604 59.0453 282.188 59.216C281.783 59.376 281.266 59.712 280.636 60.224V66H279.676V58.208H280.588V59.328C281.186 58.8267 281.708 58.4907 282.156 58.32C282.615 58.1387 283.047 58.048 283.452 58.048C284.444 58.048 285.09 58.496 285.388 59.392C286.018 58.8587 286.567 58.5013 287.036 58.32C287.516 58.1387 287.964 58.048 288.38 58.048C289.074 58.048 289.596 58.2667 289.948 58.704C290.311 59.1413 290.492 59.7707 290.492 60.592V66H289.532V60.768C289.532 60.1387 289.426 59.68 289.212 59.392C288.999 59.104 288.668 58.96 288.22 58.96C287.9 58.96 287.532 59.0453 287.116 59.216C286.7 59.376 286.178 59.712 285.548 60.224C285.559 60.2773 285.564 60.336 285.564 60.4C285.564 60.464 285.564 60.528 285.564 60.592V66H284.604V60.768C284.604 60.1387 284.498 59.68 284.284 59.392C284.071 59.104 283.74 58.96 283.292 58.96ZM296.418 66.16C296.087 66.16 295.751 66.1227 295.41 66.048C295.079 65.984 294.748 65.888 294.418 65.76V69.408H293.458V58.208H294.37V59.312C294.85 58.8747 295.308 58.5547 295.746 58.352C296.183 58.1493 296.631 58.048 297.09 58.048C297.911 58.048 298.535 58.3627 298.962 58.992C299.399 59.6107 299.618 60.4907 299.618 61.632V62.592C299.618 63.68 299.346 64.5493 298.802 65.2C298.258 65.84 297.463 66.16 296.418 66.16ZM296.898 58.96C296.556 58.96 296.199 59.0453 295.826 59.216C295.463 59.376 294.994 59.7227 294.418 60.256V64.832C295.079 65.1307 295.73 65.28 296.37 65.28C297.17 65.28 297.74 65.04 298.082 64.56C298.434 64.08 298.61 63.424 298.61 62.592V61.632C298.61 60.7147 298.471 60.0427 298.194 59.616C297.916 59.1787 297.484 58.96 296.898 58.96ZM307.822 66.08C307.385 66.08 307.022 65.9733 306.734 65.76C306.446 65.536 306.275 65.2427 306.222 64.88C305.646 65.392 305.139 65.7333 304.702 65.904C304.265 66.0747 303.854 66.16 303.47 66.16C302.787 66.16 302.281 65.9413 301.95 65.504C301.63 65.056 301.47 64.5227 301.47 63.904C301.47 63.488 301.545 63.1147 301.694 62.784C301.854 62.4533 302.115 62.192 302.478 62C302.841 61.7973 303.337 61.696 303.966 61.696C304.254 61.696 304.59 61.7173 304.974 61.76C305.358 61.792 305.731 61.84 306.094 61.904V60.752C306.094 60.0587 305.961 59.584 305.694 59.328C305.427 59.0613 305.011 58.928 304.446 58.928C304.062 58.928 303.683 58.9813 303.31 59.088C302.937 59.184 302.547 59.328 302.142 59.52L301.806 58.736C302.243 58.512 302.675 58.3413 303.102 58.224C303.539 58.1067 303.987 58.048 304.446 58.048C305.161 58.048 305.699 58.1653 306.062 58.4C306.435 58.624 306.691 58.928 306.83 59.312C306.969 59.696 307.038 60.1227 307.038 60.592V64.208C307.038 64.5067 307.086 64.7467 307.182 64.928C307.289 65.1093 307.491 65.2 307.79 65.2H307.982V66.08H307.822ZM302.462 63.904C302.462 64.3307 302.558 64.672 302.75 64.928C302.953 65.184 303.241 65.312 303.614 65.312C303.913 65.312 304.259 65.216 304.654 65.024C305.059 64.832 305.539 64.4853 306.094 63.984V62.752C305.721 62.688 305.337 62.64 304.942 62.608C304.558 62.5653 304.238 62.544 303.982 62.544C303.449 62.544 303.059 62.656 302.814 62.88C302.579 63.0933 302.462 63.4347 302.462 63.904ZM310.628 61.616V62.576C310.628 63.4507 310.793 64.1227 311.124 64.592C311.455 65.0507 311.983 65.28 312.708 65.28C313.049 65.28 313.396 65.2373 313.748 65.152C314.1 65.056 314.457 64.9227 314.82 64.752L315.14 65.536C314.329 65.952 313.492 66.16 312.628 66.16C311.636 66.16 310.884 65.8453 310.372 65.216C309.871 64.5867 309.62 63.7067 309.62 62.576V61.616C309.62 60.496 309.871 59.6213 310.372 58.992C310.884 58.3627 311.636 58.048 312.628 58.048C313.001 58.048 313.396 58.096 313.812 58.192C314.228 58.288 314.623 58.432 314.996 58.624L314.676 59.424C314.356 59.2747 314.031 59.1573 313.7 59.072C313.369 58.976 313.039 58.928 312.708 58.928C311.983 58.928 311.455 59.1573 311.124 59.616C310.793 60.0747 310.628 60.7413 310.628 61.616ZM321.223 65.696C320.636 66.0053 320.044 66.16 319.447 66.16C318.913 66.16 318.497 66.0533 318.199 65.84C317.9 65.616 317.692 65.3227 317.575 64.96C317.457 64.5973 317.399 64.2133 317.399 63.808V59.056H315.975V58.208H317.399V55.936H318.359V58.208H320.999V59.056H318.359V63.728C318.359 64.3253 318.449 64.7413 318.631 64.976C318.823 65.2 319.132 65.312 319.559 65.312C319.964 65.312 320.407 65.184 320.887 64.928L321.223 65.696ZM105.504 84.696C104.917 85.0053 104.325 85.16 103.728 85.16C103.195 85.16 102.779 85.0533 102.48 84.84C102.181 84.616 101.973 84.3227 101.856 83.96C101.739 83.5973 101.68 83.2133 101.68 82.808V78.056H100.256V77.208H101.68V74.936H102.64V77.208H105.28V78.056H102.64V82.728C102.64 83.3253 102.731 83.7413 102.912 83.976C103.104 84.2 103.413 84.312 103.84 84.312C104.245 84.312 104.688 84.184 105.168 83.928L105.504 84.696ZM112.898 84.536C112.461 84.76 112.002 84.92 111.522 85.016C111.053 85.112 110.626 85.16 110.242 85.16C109.154 85.16 108.344 84.8453 107.81 84.216C107.288 83.5867 107.026 82.7067 107.026 81.576V80.616C107.026 79.5387 107.293 78.6747 107.826 78.024C108.36 77.3733 109.128 77.048 110.13 77.048C110.92 77.048 111.581 77.2827 112.114 77.752C112.658 78.2213 112.93 78.9307 112.93 79.88C112.93 80.3173 112.866 80.8187 112.738 81.384H108.002V81.576C108.002 82.4507 108.178 83.1227 108.53 83.592C108.882 84.0507 109.453 84.28 110.242 84.28C110.562 84.28 110.93 84.2373 111.346 84.152C111.773 84.0667 112.184 83.9333 112.578 83.752L112.898 84.536ZM110.13 77.928C109.416 77.928 108.882 78.1627 108.53 78.632C108.178 79.0907 108.002 79.7253 108.002 80.536H111.922C111.944 80.3973 111.96 80.2693 111.97 80.152C111.981 80.024 111.986 79.9067 111.986 79.8C111.986 79.1387 111.8 78.664 111.426 78.376C111.064 78.0773 110.632 77.928 110.13 77.928ZM119.429 85L117.301 81.672L115.221 85H114.197L116.805 80.936L114.405 77.208H115.493L117.413 80.2L119.285 77.208H120.309L117.909 80.936L120.517 85H119.429ZM126.426 84.696C125.839 85.0053 125.247 85.16 124.65 85.16C124.117 85.16 123.701 85.0533 123.402 84.84C123.103 84.616 122.895 84.3227 122.778 83.96C122.661 83.5973 122.602 83.2133 122.602 82.808V78.056H121.178V77.208H122.602V74.936H123.562V77.208H126.202V78.056H123.562V82.728C123.562 83.3253 123.653 83.7413 123.834 83.976C124.026 84.2 124.335 84.312 124.762 84.312C125.167 84.312 125.61 84.184 126.09 83.928L126.426 84.696ZM137.508 84.536C137.07 84.76 136.612 84.92 136.132 85.016C135.662 85.112 135.236 85.16 134.852 85.16C133.764 85.16 132.953 84.8453 132.42 84.216C131.897 83.5867 131.636 82.7067 131.636 81.576V80.616C131.636 79.5387 131.902 78.6747 132.436 78.024C132.969 77.3733 133.737 77.048 134.74 77.048C135.529 77.048 136.19 77.2827 136.724 77.752C137.268 78.2213 137.54 78.9307 137.54 79.88C137.54 80.3173 137.476 80.8187 137.348 81.384H132.612V81.576C132.612 82.4507 132.788 83.1227 133.14 83.592C133.492 84.0507 134.062 84.28 134.852 84.28C135.172 84.28 135.54 84.2373 135.956 84.152C136.382 84.0667 136.793 83.9333 137.188 83.752L137.508 84.536ZM134.74 77.928C134.025 77.928 133.492 78.1627 133.14 78.632C132.788 79.0907 132.612 79.7253 132.612 80.536H136.532C136.553 80.3973 136.569 80.2693 136.58 80.152C136.59 80.024 136.596 79.9067 136.596 79.8C136.596 79.1387 136.409 78.664 136.036 78.376C135.673 78.0773 135.241 77.928 134.74 77.928ZM144.79 85V83.896C144.31 84.3333 143.852 84.6533 143.414 84.856C142.977 85.0587 142.529 85.16 142.07 85.16C141.26 85.16 140.636 84.8453 140.198 84.216C139.761 83.5867 139.542 82.7067 139.542 81.576V80.616C139.542 79.528 139.814 78.664 140.358 78.024C140.902 77.3733 141.697 77.048 142.742 77.048C143.084 77.048 143.42 77.0853 143.75 77.16C144.081 77.224 144.412 77.32 144.742 77.448V73.16H145.702V85H144.79ZM140.55 81.576C140.55 82.4933 140.689 83.1707 140.966 83.608C141.244 84.0347 141.676 84.248 142.262 84.248C142.604 84.248 142.956 84.1627 143.318 83.992C143.692 83.8213 144.166 83.4747 144.742 82.952V78.376C144.081 78.0773 143.43 77.928 142.79 77.928C141.99 77.928 141.414 78.168 141.062 78.648C140.721 79.128 140.55 79.784 140.55 80.616V81.576ZM149.795 74.984H148.643V73.816H149.795V74.984ZM149.699 85H148.739V77.208H149.699V85ZM156.723 84.696C156.136 85.0053 155.544 85.16 154.947 85.16C154.413 85.16 153.997 85.0533 153.699 84.84C153.4 84.616 153.192 84.3227 153.075 83.96C152.957 83.5973 152.899 83.2133 152.899 82.808V78.056H151.475V77.208H152.899V74.936H153.859V77.208H156.499V78.056H153.859V82.728C153.859 83.3253 153.949 83.7413 154.131 83.976C154.323 84.2 154.632 84.312 155.059 84.312C155.464 84.312 155.907 84.184 156.387 83.928L156.723 84.696ZM164.677 80.616V81.576C164.677 82.7067 164.394 83.5867 163.829 84.216C163.264 84.8453 162.469 85.16 161.445 85.16C160.41 85.16 159.61 84.8453 159.045 84.216C158.49 83.5867 158.213 82.7067 158.213 81.576V80.616C158.213 79.528 158.49 78.664 159.045 78.024C159.61 77.3733 160.41 77.048 161.445 77.048C162.48 77.048 163.274 77.3733 163.829 78.024C164.394 78.664 164.677 79.528 164.677 80.616ZM163.669 80.616C163.669 79.7627 163.477 79.1013 163.093 78.632C162.709 78.1627 162.16 77.928 161.445 77.928C160.73 77.928 160.181 78.1627 159.797 78.632C159.413 79.1013 159.221 79.7627 159.221 80.616V81.576C159.221 82.4613 159.413 83.1333 159.797 83.592C160.181 84.0507 160.73 84.28 161.445 84.28C162.16 84.28 162.709 84.0507 163.093 83.592C163.477 83.1333 163.669 82.4613 163.669 81.576V80.616ZM171.158 78.008C170.71 78.008 170.262 78.0933 169.814 78.264C169.366 78.4347 168.843 78.8133 168.246 79.4V85H167.286V77.208H168.198V78.504C168.742 77.9387 169.248 77.5547 169.718 77.352C170.187 77.1493 170.667 77.048 171.158 77.048V78.008ZM174.062 82.248H173.262L173.182 78.44V74.12H174.142V78.44L174.062 82.248ZM174.238 85H173.086V83.832H174.238V85Z" fill="white" fill-opacity="0.8" shape-rendering="crispEdges"/>
</g>
<defs>
<filter id="filter0_d_2_30" x="9.5" y="9.5" width="81" height="81" filterUnits="userSpaceOnUse" color-interpolation-filters="sRGB">
<feFlood flood-opacity="0" result="BackgroundImageFix"/>
<feColorMatrix in="SourceAlpha" type="matrix" values="0 0 0 0 0 0 0 0 0 0 0 0 0 0 0 0 0 0 127 0" result="hardAlpha"/>
<feOffset dy="4"/>
<feGaussianBlur stdDeviation="4"/>
<feComposite in2="hardAlpha" operator="out"/>
<feColorMatrix type="matrix" values="0 0 0 0 0 0 0 0 0 0 0 0 0 0 0 0 0 0 0.1 0"/>
<feBlend mode="normal" in2="BackgroundImageFix" result="effect1_dropShadow_2_30"/>
<feBlend mode="normal" in="SourceGraphic" in2="effect1_dropShadow_2_30" result="shape"/>
</filter>
<filter id="filter1_d_2_30" x="18.2213" y="17.39" width="63.4515" height="23.3" filterUnits="userSpaceOnUse" color-interpolation-filters="sRGB">
<feFlood flood-opacity="0" result="BackgroundImageFix"/>
<feColorMatrix in="SourceAlpha" type="matrix" values="0 0 0 0 0 0 0 0 0 0 0 0 0 0 0 0 0 0 127 0" result="hardAlpha"/>
<feOffset/>
<feGaussianBlur stdDeviation="2.5"/>
<feComposite in2="hardAlpha" operator="out"/>
<feColorMatrix type="matrix" values="0 0 0 0 1 0 0 0 0 1 0 0 0 0 1 0 0 0 0.5 0"/>
<feBlend mode="normal" in2="BackgroundImageFix" result="effect1_dropShadow_2_30"/>
<feBlend mode="normal" in="SourceGraphic" in2="effect1_dropShadow_2_30" result="shape"/>
</filter>
<filter id="filter2_d_2_30" x="96.3049" y="10.32" width="135.148" height="40.816" filterUnits="userSpaceOnUse" color-interpolation-filters="sRGB">
<feFlood flood-opacity="0" result="BackgroundImageFix"/>
<feColorMatrix in="SourceAlpha" type="matrix" values="0 0 0 0 0 0 0 0 0 0 0 0 0 0 0 0 0 0 127 0" result="hardAlpha"/>
<feOffset/>
<feGaussianBlur stdDeviation="2.5"/>
<feComposite in2="hardAlpha" operator="out"/>
<feColorMatrix type="matrix" values="0 0 0 0 0 0 0 0 0 0 0 0 0 0 0 0 0 0 0.5 0"/>
<feBlend mode="normal" in2="BackgroundImageFix" result="effect1_dropShadow_2_30"/>
<feBlend mode="normal" in="SourceGraphic" in2="effect1_dropShadow_2_30" result="shape"/>
</filter>
<filter id="filter3_d_2_30" x="98.508" y="52.46" width="224.415" height="34.4" filterUnits="userSpaceOnUse" color-interpolation-filters="sRGB">
<feFlood flood-opacity="0" result="BackgroundImageFix"/>
<feColorMatrix in="SourceAlpha" type="matrix" values="0 0 0 0 0 0 0 0 0 0 0 0 0 0 0 0 0 0 127 0" result="hardAlpha"/>
<feOffset/>
<feGaussianBlur stdDeviation="0.85"/>
<feComposite in2="hardAlpha" operator="out"/>
<feColorMatrix type="matrix" values="0 0 0 0 0 0 0 0 0 0 0 0 0 0 0 0 0 0 0.75 0"/>
<feBlend mode="normal" in2="BackgroundImageFix" result="effect1_dropShadow_2_30"/>
<feBlend mode="normal" in="SourceGraphic" in2="effect1_dropShadow_2_30" result="shape"/>
</filter>
<linearGradient id="paint0_linear_2_30" x1="7.5" y1="7.5" x2="92.5" y2="92.5" gradientUnits="userSpaceOnUse">
<stop stop-color="#2C2C2C"/>
<stop offset="1" stop-color="#222222"/>
</linearGradient>
<clipPath id="clip0_2_30">
<rect width="85" height="85" fill="white" transform="translate(7.5 7.5)"/>
</clipPath>
</defs>
</svg>
